<?xml version="1.0" encoding="UTF-8" standalone="no"?>
<!-- Created with Inkscape (http://www.inkscape.org/) -->

<svg
   width="200.04517mm"
   height="204.39062mm"
   viewBox="0 0 200.04517 204.39062"
   version="1.1"
   id="svg1"
   inkscape:version="1.4.2 (f4327f4, 2025-05-13)"
   sodipodi:docname="logo_v1_without_txt.svg"
   xmlns:inkscape="http://www.inkscape.org/namespaces/inkscape"
   xmlns:sodipodi="http://sodipodi.sourceforge.net/DTD/sodipodi-0.dtd"
   xmlns="http://www.w3.org/2000/svg"
   xmlns:svg="http://www.w3.org/2000/svg">
  <sodipodi:namedview
     id="namedview1"
     pagecolor="#ffffff"
     bordercolor="#000000"
     borderopacity="0.25"
     inkscape:showpageshadow="2"
     inkscape:pageopacity="0.0"
     inkscape:pagecheckerboard="0"
     inkscape:deskcolor="#d1d1d1"
     inkscape:document-units="mm"
     inkscape:zoom="0.71891835"
     inkscape:cx="393.64693"
     inkscape:cy="445.80862"
     inkscape:window-width="1920"
     inkscape:window-height="1009"
     inkscape:window-x="1912"
     inkscape:window-y="-8"
     inkscape:window-maximized="1"
     inkscape:current-layer="layer1" />
  <defs
     id="defs1" />
  <g
     inkscape:label="Слой 1"
     inkscape:groupmode="layer"
     id="layer1"
     transform="translate(-0.88539417,-1.0747569)">
    <g
       id="g77"
       transform="matrix(0.13229166,0,0,0.13229166,-4.4162805,-2.440726)">
      <path
         style="fill:#ed7a08;fill-opacity:1"
         d="m 537.80047,1276.9071 c 0.36667,-0.3666 0.96667,-0.3666 1.33334,0 0.36666,0.3667 0.0667,0.6667 -0.66667,0.6667 -0.73333,0 -1.03333,-0.3 -0.66667,-0.6667 z"
         id="path21" />
      <path
         style="fill:#ed7a08;fill-opacity:1"
         d="m 1166.4672,28.57373 c 0.5887,-1.1 0.8454,-2 0.5704,-2 -0.275,0 -0.9817,0.9 -1.5704,2 -0.5887,1.1 -0.8454,2 -0.5704,2 0.275,0 0.9817,-0.9 1.5704,-2 z"
         id="path5" />
      <path
         style="fill:#ed7a08;fill-opacity:1"
         d="m 448.96717,1570.5738 c 0.33992,-0.55 0.39303,-1 0.11803,-1 -0.275,0 -0.77811,0.45 -1.11803,1 -0.33992,0.55 -0.39303,1 -0.11803,1 0.275,0 0.77811,-0.45 1.11803,-1 z"
         id="path3" />
      <circle
         style="fill:#ffffff;fill-opacity:1;stroke-width:1.30812"
         id="path77"
         cx="800.10034"
         cy="786.47339"
         r="535.34692" />
      <path
         style="fill:#d5262b;fill-opacity:1"
         d="m 463.57971,1552.5738 c 13.83622,-16.4941 70.81235,-84.9617 75.31062,-90.5 1.78686,-2.2 11.99592,-14.575 22.6868,-27.5 10.69088,-12.925 31.10581,-37.9 45.36651,-55.5 47.33989,-58.425 82.49934,-101.24 144.07728,-175.4483 21.31499,-25.687 50.8415,-61.6029 67.86585,-82.5517 7.15143,-8.8 20.23945,-24.775 29.08447,-35.5 8.84503,-10.725 26.49441,-32.325 39.22084,-48 20.92883,-25.7779 40.11713,-49.14741 77.07423,-93.86941 19.235,-23.27628 44.21519,-53.67544 69.16769,-84.172 12.3568,-15.10227 29.4715,-36.00866 38.0327,-46.45866 8.5612,-10.45 24.7513,-30.25 35.978,-44 11.2268,-13.75 24.4871,-29.92349 29.4674,-35.9411 16.808,-20.30876 44.5451,-55.05349 44.5501,-55.8055 0,-0.41063 -64.4513,-0.86063 -143.2313,-1 -133.82314,-0.23675 -143.25786,-0.36497 -143.56332,-1.95118 -0.17982,-0.93377 4.16879,-11.50877 9.66358,-23.5 5.49475,-11.99122 11.86415,-26.52722 14.15425,-32.30222 7.1845,-18.11782 46.583,-111.4765 64.9898,-154 5.5948,-12.925 16.38761,-38.35 23.98399,-56.5 7.5963,-18.15 19.3058,-45.6 26.021,-61 6.7151,-15.4 16.2416,-37.675 21.1699,-49.5 13.0438,-31.29707 20.5863,-49.17844 33.4524,-79.3069 6.2962,-14.74379 20.2173,-48.49379 30.9357,-75 10.7184,-26.5062 21.2625,-52.4681 23.4312,-57.6931 10.7544,-25.91032 21.7118,-54.134701 20.5348,-52.894168 -1.3346,1.406583 -17.0232,20.000843 -34.537,40.933458 -5.225,6.24495 -15.125,17.938027 -22,25.984616 -22.9341,26.842364 -32.395,38.128604 -46.1117,55.008274 -7.4864,9.21275 -20.5649,25.01186 -29.0633,35.10913 -8.4985,10.09728 -22.6584,27.3768 -31.46648,38.39894 -25.16471,31.49034 -91.47681,112.2954 -131.26984,159.95975 -12.39766,14.85 -38.48845,46.125 -57.97953,69.5 -19.49109,23.375 -39.09516,46.775 -43.5646,52 -4.46944,5.225 -14.84355,17.825 -23.05357,28 -8.21002,10.175 -22.14164,27.07823 -30.95916,37.56273 -19.03205,22.63013 -73.16953,88.22806 -100.55581,121.84263 -10.71182,13.14794 -35.22604,42.8842 -54.47604,66.08057 -19.25,23.19637 -48.275,58.30362 -64.5,78.01611 -16.225,19.71249 -33.40943,40.37623 -38.18763,45.91943 l -8.68763,10.07853 143.68763,0.5 143.68763,0.5 0.29243,2.04301 c 0.28756,2.00905 -9.3042,24.70281 -45.20655,106.95696 -7.81431,17.9031 -19.51651,45.1988 -38.58474,90.0001 -8.89542,20.9 -19.013,44.525 -22.48351,52.5 -3.47051,7.975 -13.06078,30.475 -21.3117,50 -8.25093,19.525 -19.93566,46.75 -25.96608,60.5 -6.03042,13.75 -13.78032,31.75 -17.22199,40 -3.44167,8.25 -11.54807,27.15 -18.01422,42 -6.46615,14.85 -16.94112,39.15 -23.27772,54 -6.33661,14.85 -17.87493,41.7531 -25.64072,59.7846 -7.76579,18.0315 -14.94911,34.9065 -15.96293,37.5 -3.46209,8.8564 -23.91035,58.6963 -27.5771,67.2154 -4.18079,9.7134 -4.48469,9.9435 10.56737,-8 z"
         id="path4" />
      <path
         style="fill:#ef7a09;fill-opacity:1"
         d="m 442.72202,1444.8238 c 1.97022,-4.8125 5.35855,-13.25 7.52963,-18.75 4.05761,-10.2792 19.51036,-46.2439 27.49845,-64 5.17829,-11.5104 26.86779,-63.4363 36.33996,-87 9.14657,-22.7537 11.50818,-29.3927 10.84002,-30.4738 -0.32235,-0.5216 -4.68322,-3.4827 -9.69084,-6.5803 -55.49892,-34.3302 -109.2326,-82.9981 -146.7842,-132.9459 -19.84457,-26.3955 -35.02653,-51.3896 -51.02337,-84 -21.7485,-44.3355 -34.59926,-82.37631 -44.42268,-131.50007 -12.64069,-63.212 -12.28284,-134.87185 1.01123,-202.5 14.79471,-75.26201 44.78633,-145.19502 89.70254,-209.164 23.39995,-33.32586 58.74128,-72.15455 88.82517,-97.59012 11.26114,-9.52115 37.07225,-29.55246 47.23937,-36.6612 38.7491,-27.09295 90.57879,-52.94347 135.12659,-67.39558 80.00277,-25.95435 168.7318,-32.10709 249.79971,-17.32187 l 17.70012,3.22816 2.89577,-3.04769 c 1.59264,-1.67624 7.95894,-9.5727 14.14724,-17.5477 14.2596,-18.37665 28.1448,-35.37252 71.07649,-87 18.37978,-22.10259 20.79068,-25.06953 40.62998,-50 8.9724,-11.275 18.0905,-22.598167 20.2623,-25.162594 l 3.9488,-4.662595 -8.239,-2.981202 c -7.1296,-2.57981 -25.9048,-8.626724 -47.45688,-15.28442 -17.19449,-5.31161 -72.49439,-17.726772 -86.26449,-19.36693 -3.025,-0.360306 -11.57504,-1.520334 -19.00004,-2.577839 -45.29731,-6.451467 -112.34807,-8.880953 -151.62942,-5.49407 -30.93828,2.667535 -58.06114,6.452093 -83.3576,11.631213 -7.98214,1.634239 -20.13798,4.083315 -27.01298,5.442393 -21.07022,4.165244 -56.46172,14.003561 -79,21.96084 -62.90808,22.210083 -94.17926,36.997064 -146.44538,69.248594 -51.57754,31.82662 -81.55058,54.62162 -126.87909,96.49365 -24.29025,22.43802 -35.56617,34.23478 -55.24734,57.79925 -37.83253,45.29731 -61.72027,79.55448 -86.22832,123.65919 -20.67305,37.20322 -28.57494,53.64218 -42.727881,88.89033 -28.180138,70.18309 -42.437568,125.22348 -50.875698,196.40419 -4.00576,33.79103 -5.08376,54.61224 -4.91852,95 0.13321,32.56035 0.49255,40.72724 2.72801,62 4.86052,46.25292 10.75178,78.43993 23.24512,127 9.71287,37.75277 15.45079,54.56227 35.329839,103.50007 6.59176,16.2275 21.3823,46.7597 30.77858,63.5365 25.57117,45.6565 62.46822,97.7804 97.66059,137.9635 52.72632,60.2036 102.18173,101.3885 172.58009,143.7191 18.57509,11.1692 34.28007,20.0708 35.61296,20.1853 0.61213,0.053 2.72496,-3.8419 4.69517,-8.6544 z"
         id="path10" />
      <path
         style="fill:#ed7908;fill-opacity:1"
         d="m 854.46717,1544.4966 c 31.70403,-2.3202 72.48514,-9.0144 112.61834,-18.4862 13.1349,-3.0999 25.00671,-5.8665 26.38171,-6.1478 10.31918,-2.1117 58.49248,-18.2358 81.99248,-27.4438 30.5086,-11.9542 80.8037,-37.3348 109.0075,-55.0088 23.2878,-14.5934 53.5202,-35.4824 75.0218,-51.8362 14.1576,-10.7681 45.0763,-37.3985 59.7856,-51.4935 48.5312,-46.5045 106.0417,-121.3433 140.0247,-182.2154 5.0297,-9.0094 23.1679,-44.7634 23.1679,-45.6685 0,-0.2517 3.0918,-7.1323 6.8708,-15.2901 11.8269,-25.5316 25.1585,-63.0247 33.1867,-93.33257 14.6661,-55.36693 23.1178,-102.17007 26.8161,-148.5 0.5708,-7.15 1.5731,-19.55006 2.2274,-27.55569 1.2702,-15.54087 0.5831,-74.73997 -1.009,-86.94431 -0.4664,-3.575 -2.033,-17.75 -3.4814,-31.5 -5.3676,-50.95771 -8.7035,-69.55745 -19.28,-107.5 -17.5427,-62.93346 -38.7018,-118.29049 -61.6309,-161.24096 -12.2601,-22.96548 -41.9329,-71.30846 -55.7083,-90.76006 -29.1219,-41.12168 -66.4866,-83.31721 -104.4914,-118.00086 -33.5383,-30.60752 -76.3483,-62.58154 -110.3841,-82.44404 -6.2613,-3.65393 -11.8019,-6.73588 -12.3126,-6.84879 -0.5106,-0.11291 -4.439,8.56971 -8.7299,19.29471 -4.2908,10.725 -13.7624,33.225 -21.0481,50 -19.8229,45.64201 -30.3691,70.48358 -34.1401,80.41739 -1.8619,4.90456 -7.9488,20.31505 -13.5265,34.24554 l -10.1412,25.32815 13.1412,9.88538 c 57.7813,43.46538 102.4093,91.62797 137.9297,148.85378 11.4087,18.3802 32.9131,60.84883 40.6454,80.26976 11.1113,27.90792 21.1291,61.03956 25.1946,83.32555 1.0585,5.80232 1.0298,6.96623 -0.1916,7.76394 -0.8224,0.5371 -12.918,0.86303 -28.2844,0.76216 l -26.8476,-0.17623 -2.6431,3.41229 c -1.4537,1.87676 -9.3973,11.47886 -17.6524,21.33801 -8.2551,9.85915 -23.3442,28.08415 -33.5314,40.5 -10.1871,12.41585 -23.0121,28.00663 -28.5,34.64617 -47.6969,57.70667 -72.3002,87.65144 -84.77,103.17403 l -14.6576,18.24592 118.7248,0.25408 118.7249,0.25408 0.3111,3.21949 c 0.5542,5.7355 -6.2726,34.48946 -13.4809,56.78051 -12.1461,37.56097 -30.8384,77.69787 -51.6603,110.92707 -53.5496,85.4588 -132.86,156.2939 -224.0464,200.1044 -57.66299,27.7041 -118.41869,44.6672 -182.51363,50.9581 -26.67034,2.6177 -89.86656,1.5074 -112.6099,-1.9783 -2.6683,-0.409 -3.50518,0.1731 -7.56893,5.2645 -48.87986,61.2405 -78.78567,98.4829 -84.89713,105.7243 -7.94537,9.4144 -15.74468,19.0621 -45.86087,56.73 -9.99519,12.5015 -18.17307,22.9115 -18.17307,23.1334 0,0.2219 1.0125,0.6271 2.25,0.9004 1.2375,0.2734 9.9,2.6099 19.25,5.1922 45.74116,12.6331 92.8992,21.9963 131,26.0101 30.26433,3.1882 37.45272,3.7312 60,4.5316 24.62103,0.8742 47.75669,0.5163 69.5,-1.0749 z"
         id="path7" />
    </g>
  </g>
</svg>
